# xmcd CD database file
#
# Track frame offsets:
#	150
#	14397
#	37731
#	53726
#	78850
#	93392
#	113728
#	132818
#	157306
#	173638
#	186594
#	199763
#	214147
#	227308
#	248149
#	264690
#	275936
#	287776
#	301142
#	315131
#
# Disc length: 4368 seconds
#
# Revision: 0
# Processed by: cddbd v1.5.2PL0 Copyright (c) Steve Scherf et al.
# Submitted via: CDex 1.70beta2
#
DISCID=10110e14
DTITLE=Duke Ellington - Swing! presents Duke Ellington's Best (disk 1)
DYEAR=1900
DGENRE=Jazz
TTITLE0=Black And Tan Fantasy
TTITLE1=Black And Tan Fantasy
TTITLE2=The Mooche
TTITLE3=The Mooche
TTITLE4=Creole Love Call
TTITLE5=Creole Love Call
TTITLE6=Caravan
TTITLE7=Caravan
TTITLE8=East Saint Louis Toodle-O
TTITLE9=Jungle Nights In Harlem
TTITLE10=Rockin' In Rhythm
TTITLE11=Cotton Tail
TTITLE12=Take The "A" Train
TTITLE13=Take The "A" Train
TTITLE14=Jumpin' Punkins
TTITLE15=Raincheck
TTITLE16=The "C" Jam Blues
TTITLE17=It Don't Mean A Thing (If  It Ain't Got That Swing) 
TTITLE18=Things Ain't What They Used To Be
TTITLE19=Suddenly It Jumped
EXTD=
EXTT0=
EXTT1=
EXTT2=
EXTT3=
EXTT4=
EXTT5=
EXTT6=
EXTT7=
EXTT8=
EXTT9=
EXTT10=
EXTT11=
EXTT12=
EXTT13=
EXTT14=
EXTT15=
EXTT16=
EXTT17=
EXTT18=
EXTT19=
PLAYORDER=
